<svg width="57" height="20" viewBox="0 0 57 20" fill="none" xmlns="http://www.w3.org/2000/svg">
<rect width="57" height="20" rx="3" fill="url(#paint0_linear_1_1785)"/>
<path d="M7 17C8.10457 17 9 16.1046 9 15C9 13.8954 8.10457 13 7 13C5.89543 13 5 13.8954 5 15C5 16.1046 5.89543 17 7 17Z" fill="white"/>
<path d="M5 7.66699V10.334C8.676 10.334 11.667 13.324 11.667 17H14.333C14.333 11.854 10.146 7.66699 5 7.66699Z" fill="white"/>
<path d="M5 3V5.667C11.25 5.667 16.334 10.75 16.334 17H19C19 9.28 12.72 3 5 3Z" fill="white"/>
<path d="M25.2378 4.33594H28.7681C29.5688 4.33594 30.2451 4.45801 30.7969 4.70215C31.3535 4.94629 31.7759 5.30762 32.064 5.78613C32.3569 6.25977 32.5034 6.84326 32.5034 7.53662C32.5034 8.0249 32.4033 8.47168 32.2031 8.87695C32.0078 9.27734 31.7246 9.61914 31.3535 9.90234C30.9873 10.1807 30.5479 10.3882 30.0352 10.5249L29.6396 10.6787H26.3218L26.3071 9.52881H28.812C29.3198 9.52881 29.7422 9.44092 30.0791 9.26514C30.416 9.08447 30.6699 8.84277 30.8408 8.54004C31.0117 8.2373 31.0972 7.90283 31.0972 7.53662C31.0972 7.12646 31.0166 6.76758 30.8555 6.45996C30.6943 6.15234 30.4404 5.91553 30.0938 5.74951C29.752 5.57861 29.3101 5.49316 28.7681 5.49316H26.6514V15H25.2378V4.33594ZM31.4707 15L28.8779 10.166L30.3501 10.1587L32.9795 14.9121V15H31.4707ZM40.1646 12.3047C40.1646 12.0557 40.1255 11.8359 40.0474 11.6455C39.9741 11.4502 39.8423 11.2744 39.6519 11.1182C39.4663 10.9619 39.2075 10.813 38.8755 10.6714C38.5483 10.5298 38.1333 10.3857 37.6304 10.2393C37.103 10.083 36.627 9.90967 36.2021 9.71924C35.7773 9.52393 35.4136 9.30176 35.1108 9.05273C34.8081 8.80371 34.5762 8.51807 34.415 8.1958C34.2539 7.87354 34.1733 7.50488 34.1733 7.08984C34.1733 6.6748 34.2588 6.2915 34.4297 5.93994C34.6006 5.58838 34.8447 5.2832 35.1621 5.02441C35.4844 4.76074 35.8677 4.55566 36.312 4.40918C36.7563 4.2627 37.252 4.18945 37.7988 4.18945C38.5996 4.18945 39.2783 4.34326 39.835 4.65088C40.3965 4.95361 40.8237 5.35156 41.1167 5.84473C41.4097 6.33301 41.5562 6.85547 41.5562 7.41211H40.1499C40.1499 7.01172 40.0645 6.65771 39.8936 6.3501C39.7227 6.0376 39.4639 5.79346 39.1172 5.61768C38.7705 5.43701 38.3311 5.34668 37.7988 5.34668C37.2959 5.34668 36.8809 5.42236 36.5537 5.57373C36.2266 5.7251 35.9824 5.93018 35.8213 6.18896C35.665 6.44775 35.5869 6.74316 35.5869 7.0752C35.5869 7.2998 35.6333 7.50488 35.7261 7.69043C35.8237 7.87109 35.9727 8.03955 36.1729 8.1958C36.3779 8.35205 36.6367 8.49609 36.9492 8.62793C37.2666 8.75977 37.645 8.88672 38.0845 9.00879C38.6899 9.17969 39.2124 9.37012 39.6519 9.58008C40.0913 9.79004 40.4526 10.0269 40.7358 10.2905C41.0239 10.5493 41.2363 10.8447 41.373 11.1768C41.5146 11.5039 41.5854 11.875 41.5854 12.29C41.5854 12.7246 41.4976 13.1177 41.3218 13.4692C41.146 13.8208 40.8945 14.1211 40.5674 14.3701C40.2402 14.6191 39.8472 14.812 39.3882 14.9487C38.9341 15.0806 38.4263 15.1465 37.8647 15.1465C37.3716 15.1465 36.8857 15.0781 36.4072 14.9414C35.9336 14.8047 35.5015 14.5996 35.1108 14.3262C34.7251 14.0527 34.415 13.7158 34.1807 13.3154C33.9512 12.9102 33.8364 12.4414 33.8364 11.9092H35.2427C35.2427 12.2754 35.3135 12.5903 35.4551 12.854C35.5967 13.1128 35.7896 13.3276 36.0337 13.4985C36.2827 13.6694 36.5635 13.7964 36.876 13.8794C37.1934 13.9575 37.5229 13.9966 37.8647 13.9966C38.3579 13.9966 38.7754 13.9282 39.1172 13.7915C39.459 13.6548 39.7178 13.4595 39.8936 13.2056C40.0742 12.9517 40.1646 12.6514 40.1646 12.3047ZM49.0708 12.3047C49.0708 12.0557 49.0317 11.8359 48.9536 11.6455C48.8804 11.4502 48.7485 11.2744 48.5581 11.1182C48.3726 10.9619 48.1138 10.813 47.7817 10.6714C47.4546 10.5298 47.0396 10.3857 46.5366 10.2393C46.0093 10.083 45.5332 9.90967 45.1084 9.71924C44.6836 9.52393 44.3198 9.30176 44.0171 9.05273C43.7144 8.80371 43.4824 8.51807 43.3213 8.1958C43.1602 7.87354 43.0796 7.50488 43.0796 7.08984C43.0796 6.6748 43.165 6.2915 43.3359 5.93994C43.5068 5.58838 43.751 5.2832 44.0684 5.02441C44.3906 4.76074 44.7739 4.55566 45.2183 4.40918C45.6626 4.2627 46.1582 4.18945 46.7051 4.18945C47.5059 4.18945 48.1846 4.34326 48.7412 4.65088C49.3027 4.95361 49.73 5.35156 50.0229 5.84473C50.3159 6.33301 50.4624 6.85547 50.4624 7.41211H49.0562C49.0562 7.01172 48.9707 6.65771 48.7998 6.3501C48.6289 6.0376 48.3701 5.79346 48.0234 5.61768C47.6768 5.43701 47.2373 5.34668 46.7051 5.34668C46.2021 5.34668 45.7871 5.42236 45.46 5.57373C45.1328 5.7251 44.8887 5.93018 44.7275 6.18896C44.5713 6.44775 44.4932 6.74316 44.4932 7.0752C44.4932 7.2998 44.5396 7.50488 44.6323 7.69043C44.73 7.87109 44.8789 8.03955 45.0791 8.1958C45.2842 8.35205 45.543 8.49609 45.8555 8.62793C46.1729 8.75977 46.5513 8.88672 46.9907 9.00879C47.5962 9.17969 48.1187 9.37012 48.5581 9.58008C48.9976 9.79004 49.3589 10.0269 49.6421 10.2905C49.9302 10.5493 50.1426 10.8447 50.2793 11.1768C50.4209 11.5039 50.4917 11.875 50.4917 12.29C50.4917 12.7246 50.4038 13.1177 50.228 13.4692C50.0522 13.8208 49.8008 14.1211 49.4736 14.3701C49.1465 14.6191 48.7534 14.812 48.2944 14.9487C47.8403 15.0806 47.3325 15.1465 46.771 15.1465C46.2778 15.1465 45.792 15.0781 45.3135 14.9414C44.8398 14.8047 44.4077 14.5996 44.0171 14.3262C43.6313 14.0527 43.3213 13.7158 43.0869 13.3154C42.8574 12.9102 42.7427 12.4414 42.7427 11.9092H44.1489C44.1489 12.2754 44.2197 12.5903 44.3613 12.854C44.5029 13.1128 44.6958 13.3276 44.9399 13.4985C45.189 13.6694 45.4697 13.7964 45.7822 13.8794C46.0996 13.9575 46.4292 13.9966 46.771 13.9966C47.2642 13.9966 47.6816 13.9282 48.0234 13.7915C48.3652 13.6548 48.624 13.4595 48.7998 13.2056C48.9805 12.9517 49.0708 12.6514 49.0708 12.3047Z" fill="white"/>
<defs>
<linearGradient id="paint0_linear_1_1785" x1="28.5" y1="0" x2="28.5" y2="20" gradientUnits="userSpaceOnUse">
<stop stop-color="#F09C61"/>
<stop offset="1" stop-color="#F97419"/>
</linearGradient>
</defs>
</svg>
